HIERARCHY
ROOT Hips
{
	OFFSET 56.877701 -32.693596 43.373703
	CHANNELS 6 Xposition Yposition Zposition Zrotation Xrotation Yrotation
	JOINT Chest
	{
		OFFSET -0.779999 1.005800 5.403099
		CHANNELS 6 Xposition Yposition Zposition Zrotation Xrotation Yrotation
		JOINT Chest2
		{
			OFFSET 0.000000 0.000000 4.236801
			CHANNELS 6 Xposition Yposition Zposition Zrotation Xrotation Yrotation
			JOINT Neck
			{
				OFFSET 0.000000 0.000000 9.874401
				CHANNELS 6 Xposition Yposition Zposition Zrotation Xrotation Yrotation
				JOINT Head
				{
					OFFSET 0.000000 0.000002 2.173893
					CHANNELS 6 Xposition Yposition Zposition Zrotation Xrotation Yrotation
					End Site
					{
						OFFSET 0.000000 0.000000 6.508102
					}
				}
			}
			JOINT LeftCollar
			{
				OFFSET 2.681599 -0.377600 5.432499
				CHANNELS 6 Xposition Yposition Zposition Zrotation Xrotation Yrotation
				JOINT LeftShoulder
				{
					OFFSET 5.161499 0.000000 0.000000
					CHANNELS 6 Xposition Yposition Zposition Zrotation Xrotation Yrotation
					JOINT LeftElbow
					{
						OFFSET 0.000000 0.000000 -10.869099
						CHANNELS 6 Xposition Yposition Zposition Zrotation Xrotation Yrotation
						JOINT LeftWrist
						{
							OFFSET 0.000000 0.000000 -13.344799
							CHANNELS 6 Xposition Yposition Zposition Zrotation Xrotation Yrotation
							End Site
							{
								OFFSET 0.000000 0.000000 -2.173901
							}
						}
					}
				}
			}
			JOINT RightCollar
			{
				OFFSET -2.381901 -1.419600 6.136600
				CHANNELS 6 Xposition Yposition Zposition Zrotation Xrotation Yrotation
				JOINT RightShoulder
				{
					OFFSET -4.550499 0.000000 0.000000
					CHANNELS 6 Xposition Yposition Zposition Zrotation Xrotation Yrotation
					JOINT RightElbow
					{
						OFFSET 0.000000 0.000000 -11.106499
						CHANNELS 6 Xposition Yposition Zposition Zrotation Xrotation Yrotation
						JOINT RightWrist
						{
							OFFSET 0.000000 0.000000 -12.874298
							CHANNELS 6 Xposition Yposition Zposition Zrotation Xrotation Yrotation
							End Site
							{
								OFFSET 0.000000 0.000000 -2.173901
							}
						}
					}
				}
			}
		}
	}
	JOINT LeftHip
	{
		OFFSET 2.431900 0.469601 -2.489399
		CHANNELS 6 Xposition Yposition Zposition Zrotation Xrotation Yrotation
		JOINT LeftKnee
		{
			OFFSET 0.000000 -0.000004 -18.200201
			CHANNELS 6 Xposition Yposition Zposition Zrotation Xrotation Yrotation
			JOINT LeftAnkle
			{
				OFFSET 0.000000 0.000000 -16.279900
				CHANNELS 6 Xposition Yposition Zposition Zrotation Xrotation Yrotation
				End Site
				{
					OFFSET 0.000000 -8.394100 0.000000
				}
			}
		}
	}
	JOINT RightHip
	{
		OFFSET -1.987999 -0.073502 -2.713001
		CHANNELS 6 Xposition Yposition Zposition Zrotation Xrotation Yrotation
		JOINT RightKnee
		{
			OFFSET 0.000000 -0.000004 -19.547802
			CHANNELS 6 Xposition Yposition Zposition Zrotation Xrotation Yrotation
			JOINT RightAnkle
			{
				OFFSET 0.000000 0.000000 -14.881199
				CHANNELS 6 Xposition Yposition Zposition Zrotation Xrotation Yrotation
				End Site
				{
					OFFSET 0.000000 -7.922699 0.000000
				}
			}
		}
	}
}
MOTION
Frames: 9
Frame Time: 0.041667
58.449799 -33.304398 42.859905 4490.470167 17.804254 -8.243375 -0.779992 1.005809 5.403093 12.223030 -11.795947 0.024845 0.000007 -0.000001 4.236796 -12.177502 -0.786158 -1.193625 0.000004 0.000003 9.874395 62.948294 12.247093 1.352914 0.000002 -0.000000 2.173895 3.500824 1.643141 8.034859 2.681599 -0.377601 5.432499 -8.966624 2.539733 4.276371 5.161500 0.000007 -0.000004 168.660894 -204.033009 131.653126 -0.000001 0.000006 -10.869087 -5.402245 -32.170157 28.801467 0.000006 0.000000 -13.344803 -74.240154 -6.557375 -43.778910 -2.381904 -1.419601 6.136599 4.498194 -3.350778 31.832800 -4.550513 0.000005 0.000013 -1228.766659 -495.332531 -413.648277 0.000012 -0.000008 -11.106497 678.841082 -49.671540 686.358278 0.000008 0.000005 -12.874287 -276.119959 0.271236 85.327381 2.431906 0.469608 -2.489402 7.991486 -17.617303 10.591978 -0.000003 -0.000010 -18.200197 28.247974 20.523960 9.087894 0.000007 0.000005 -16.279898 -24.856986 36.737313 -11.468729 -1.987989 -0.073493 -2.713003 -98.114547 -44.845530 -45.387792 0.000000 -0.000006 -19.547798 -1501.658507 69.063956 -265.075106 -0.000001 -0.000000 -14.881193 2147.228317 30.393512 -346.147020
58.478996 -33.290092 42.871399 4490.617481 17.777174 -8.240264 -0.779998 1.005797 5.403100 12.067743 -11.829003 0.029796 0.000004 -0.000011 4.236794 -12.113575 -0.786905 -1.185465 0.000003 0.000002 9.874403 62.938568 12.223642 1.290901 -0.000006 0.000004 2.173899 3.480466 1.640842 8.028693 2.681594 -0.377598 5.432497 -9.104577 2.564045 4.432395 5.161511 0.000006 -0.000005 168.855855 -204.141131 131.367993 -0.000008 0.000002 -10.869095 -4.740590 -31.536032 28.894856 -0.000001 -0.000006 -13.344790 -74.811417 -6.585609 -43.983874 -2.381904 -1.419600 6.136591 4.506460 -3.206397 31.762237 -4.550513 0.000000 0.000004 -1229.176033 -495.564266 -413.623142 0.000005 0.000003 -11.106510 679.111229 -49.530889 686.708312 -0.000006 0.000008 -12.874300 -275.765500 0.759977 85.381743 2.431901 0.469597 -2.489401 7.918628 -17.543332 10.503838 0.000014 -0.000009 -18.200191 28.259161 20.507638 9.081777 -0.000001 -0.000004 -16.279902 -25.021502 36.704183 -11.291757 -1.987991 -0.073502 -2.713003 -97.637780 -44.977393 -45.019413 -0.000009 -0.000013 -19.547792 -1501.809099 69.191845 -265.216655 -0.000004 0.000012 -14.881199 2147.163621 30.365423 -346.208519
58.511700 -33.274693 42.883102 4490.770477 17.738281 -8.237903 -0.779993 1.005795 5.403091 11.903836 -11.849850 0.034949 0.000003 -0.000011 4.236804 -12.053253 -0.782681 -1.176722 -0.000001 0.000003 9.874389 62.939189 12.200837 1.228345 0.000003 -0.000007 2.173894 3.458541 1.637221 8.019534 2.681602 -0.377598 5.432488 -9.211368 2.578485 4.574886 5.161503 0.000009 0.000001 169.018126 -204.235401 131.103254 0.000000 0.000006 -10.869089 -4.098146 -30.828411 28.927709 -0.000004 -0.000007 -13.344788 -75.389367 -6.604067 -44.254452 -2.381896 -1.419596 6.136591 4.521713 -3.079029 31.714464 -4.550522 -0.000001 0.000015 -1229.675785 -495.794088 -413.689914 0.000004 0.000005 -11.106497 679.356296 -49.370107 687.053318 -0.000002 0.000005 -12.874293 -275.233538 0.475210 85.584429 2.431906 0.469597 -2.489399 7.939890 -17.461568 10.425764 0.000007 -0.000008 -18.200203 28.265841 20.530447 9.057114 -0.000005 -0.000001 -16.279900 -25.272769 36.673222 -11.110897 -1.987991 -0.073507 -2.713003 -96.954918 -45.188456 -44.489441 -0.000008 -0.000006 -19.547806 -1501.925376 69.305820 -265.498387 0.000000 0.000006 -14.881195 2147.140453 30.369924 -346.308705
58.547791 -33.258293 42.895096 4490.930904 17.684977 -8.237790 -0.779990 1.005808 5.403099 11.730613 -11.854960 0.040104 0.000007 -0.000005 4.236802 -11.996049 -0.774204 -1.167453 0.000010 0.000005 9.874398 62.947809 12.179090 1.167224 -0.000001 -0.000003 2.173893 3.436878 1.631518 8.007200 2.681601 -0.377600 5.432506 -9.285080 2.581249 4.704427 5.161507 0.000001 0.000006 169.142600 -204.312063 130.867271 0.000003 -0.000006 -10.869093 -3.421496 -30.181554 28.850412 -0.000002 -0.000007 -13.344792 -75.931609 -6.637691 -44.443204 -2.381895 -1.419597 6.136603 4.574804 -2.927941 31.694759 -4.550513 0.000001 0.000002 -1230.317057 -496.001562 -413.852309 0.000004 -0.000005 -11.106506 679.570327 -49.189885 687.389965 -0.000000 0.000007 -12.874295 -274.749222 0.578732 85.752205 2.431908 0.469606 -2.489395 7.705257 -17.356750 10.303355 0.000006 -0.000005 -18.200201 28.297066 20.451924 9.070060 -0.000007 0.000006 -16.279902 -25.319901 36.639156 -10.933778 -1.987993 -0.073501 -2.712996 -96.560625 -45.242408 -44.167367 0.000001 -0.000004 -19.547798 -1501.863522 69.418860 -265.711953 -0.000002 0.000010 -14.881197 2147.126246 30.367923 -346.373045
58.587002 -33.241192 42.907204 4491.097889 17.616040 -8.240351 -0.779990 1.005804 5.403096 11.548150 -11.841241 0.045171 0.000013 -0.000006 4.236798 -11.941397 -0.762444 -1.157966 0.000007 0.000004 9.874401 62.961558 12.158592 1.108295 0.000001 -0.000005 2.173892 3.416888 1.622940 7.991898 2.681597 -0.377602 5.432502 -9.325081 2.571568 4.823199 5.161501 0.000000 -0.000001 169.225245 -204.368153 130.668212 -0.000005 0.000004 -10.869104 -2.861788 -29.430346 28.840518 0.000002 -0.000004 -13.344797 -76.433792 -6.472886 -44.826791 -2.381900 -1.419600 6.136593 4.602134 -2.835124 31.681453 -4.550511 -0.000005 0.000015 -1231.014611 -496.225592 -414.126828 0.000009 -0.000013 -11.106504 679.749606 -48.991243 687.716339 -0.000001 -0.000001 -12.874295 -274.162482 0.691994 85.915577 2.431903 0.469603 -2.489398 7.614373 -17.245398 10.202564 0.000001 -0.000006 -18.200199 28.305281 20.436145 9.056572 -0.000005 -0.000004 -16.279898 -25.477876 36.604503 -10.758210 -1.987995 -0.073497 -2.712997 -95.881895 -45.406838 -43.624493 -0.000003 0.000000 -19.547802 -1501.797515 69.523819 -266.127912 -0.000000 -0.000003 -14.881197 2147.131273 30.384254 -346.440828
58.629303 -33.223400 42.919300 4491.270993 17.529691 -8.246696 -0.779994 1.005796 5.403102 11.356159 -11.806149 0.050357 0.000015 -0.000011 4.236808 -11.888705 -0.748470 -1.148587 0.000002 0.000007 9.874399 62.976776 12.139482 1.052545 -0.000000 0.000001 2.173892 3.400430 1.610534 7.973557 2.681601 -0.377596 5.432503 -9.332088 2.548472 4.934474 5.161497 0.000010 0.000003 169.263685 -204.400815 130.513358 -0.000004 0.000006 -10.869097 -2.421483 -28.628099 28.499659 0.000002 0.000001 -13.344786 -76.849389 -6.462961 -45.281289 -2.381894 -1.419596 6.136594 4.635199 -2.756449 31.675235 -4.550504 0.000007 -0.000002 -1231.817623 -496.447491 -414.512487 -0.000011 -0.000006 -11.106501 679.890636 -48.775218 688.031019 0.000001 -0.000006 -12.874296 -273.522138 0.807754 86.083852 2.431910 0.469599 -2.489385 7.519587 -17.121648 10.100381 0.000012 -0.000005 -18.200199 28.297706 20.425411 9.039544 -0.000011 0.000000 -16.279900 -25.617533 36.565086 -10.590389 -1.987995 -0.073503 -2.712992 -95.133545 -45.576712 -43.020305 0.000006 0.000007 -19.547806 -1501.631187 69.616737 -266.672414 -0.000005 0.000011 -14.881199 2147.160561 30.411772 -346.492573
58.674400 -33.205002 42.931400 4491.450654 17.425110 -8.257274 -0.780000 1.005804 5.403098 11.155114 -11.747574 0.056479 0.000010 0.000003 4.236793 -11.836816 -0.733794 -1.139512 0.000004 0.000004 9.874401 62.989473 12.121515 0.999609 -0.000001 0.000003 2.173900 3.388741 1.593976 7.952268 2.681602 -0.377597 5.432496 -9.308048 2.511925 5.042516 5.161507 0.000007 -0.000004 169.255995 -204.407987 130.409403 -0.000002 0.000000 -10.869098 -2.123921 -27.789125 28.071702 0.000001 0.000002 -13.344798 -77.153318 -6.334405 -45.884910 -2.381899 -1.419605 6.136597 4.673419 -2.689042 31.665519 -4.550508 0.000005 0.000008 -1232.727732 -496.669445 -415.010654 0.000004 -0.000002 -11.106506 679.993963 -48.543158 688.335536 0.000004 0.000001 -12.874302 -272.837808 0.924330 86.253582 2.431899 0.469604 -2.489397 7.424043 -16.986921 9.998694 -0.000003 -0.000005 -18.200199 28.264930 20.424907 9.019805 -0.000011 0.000002 -16.279900 -25.704645 36.667184 -10.421606 -1.988003 -0.073497 -2.713003 -94.314455 -45.748600 -42.354075 -0.000004 -0.000010 -19.547802 -1501.341805 69.690155 -267.367209 0.000002 0.000001 -14.881196 2147.221541 30.452006 -346.524675
58.722301 -33.186192 42.943199 4491.636873 17.301593 -8.272874 -0.779986 1.005809 5.403098 10.945539 -11.663840 0.064277 0.000010 0.000001 4.236804 -11.784650 -0.720164 -1.130783 0.000002 0.000005 9.874411 62.995620 12.104360 0.948632 -0.000006 -0.000000 2.173892 3.382702 1.572774 7.927951 2.681593 -0.377599 5.432505 -9.255674 2.461801 5.152874 5.161509 -0.000003 0.000002 169.202801 -204.387919 130.360909 0.000005 0.000005 -10.869104 -1.990790 -26.911946 27.475127 -0.000008 -0.000006 -13.344797 -77.317147 -6.133562 -46.652084 -2.381905 -1.419596 6.136603 4.716041 -2.630575 31.641104 -4.550511 0.000004 0.000011 -1233.745157 -496.894732 -415.622202 0.000005 -0.000008 -11.106504 680.059915 -48.296001 688.630710 0.000011 0.000008 -12.874300 -272.120255 1.039952 86.421086 2.431911 0.469604 -2.489389 7.330540 -16.843416 9.899238 -0.000003 -0.000013 -18.200199 28.196915 20.440164 8.997741 -0.000001 -0.000010 -16.279898 -25.763928 36.621746 -10.302010 -1.987986 -0.073488 -2.713003 -93.424666 -45.919065 -41.626468 -0.000003 0.000004 -19.547800 -1500.908607 69.736464 -268.231091 0.000002 0.000012 -14.881207 2147.322300 30.505995 -346.535358
58.772697 -33.167099 42.954708 4491.826588 17.158975 -8.293439 -0.780001 1.005799 5.403090 10.728484 -11.553469 0.075313 0.000001 0.000004 4.236805 -11.731535 -0.708869 -1.122654 -0.000001 0.000000 9.874408 62.991741 12.087671 0.898731 0.000001 0.000001 2.173901 3.382987 1.546317 7.900725 2.681599 -0.377601 5.432507 -9.177356 2.398478 5.270179 5.161512 0.000004 -0.000005 169.105075 -204.338496 130.372547 -0.000004 0.000005 -10.869094 -2.034754 -25.994663 26.701802 0.000007 -0.000007 -13.344797 -77.090924 -4.729451 -48.811411 -2.381907 -1.419600 6.136606 4.762703 -2.578968 31.591729 -4.550500 0.000004 0.000013 -1234.870881 -497.126467 -416.349426 0.000005 -0.000010 -11.106506 680.091279 -48.035119 688.919326 -0.000004 0.000007 -12.874303 -271.456962 1.534490 86.525048 2.431903 0.469603 -2.489401 7.242348 -16.693614 9.803955 0.000008 -0.000007 -18.200199 28.084549 20.477136 8.973358 0.000004 0.000004 -16.279900 -25.760376 36.562102 -10.228004 -1.987993 -0.073504 -2.713003 -92.464922 -46.084325 -40.838954 -0.000008 -0.000010 -19.547806 -1500.313452 69.746968 -269.281028 -0.000007 0.000010 -14.881195 2147.470269 30.574369 -346.521943
